<?xml version="1.0" encoding="utf-8"?>
<!-- Generator: Adobe Illustrator 17.0.0, SVG Export Plug-In . SVG Version: 6.00 Build 0)  -->
<!DOCTYPE svg PUBLIC "-//W3C//DTD SVG 1.1//EN" "http://www.w3.org/Graphics/SVG/1.1/DTD/svg11.dtd">
<svg version="1.1" id="Layer_1" xmlns="http://www.w3.org/2000/svg" xmlns:xlink="http://www.w3.org/1999/xlink" x="0px" y="0px"
	 width="800px" height="331.639px" viewBox="0 0 800 331.639" enable-background="new 0 0 800 331.639" xml:space="preserve">
<path fill="#B34425" d="M68.566,3.578H3.722v48.65h64.844V3.578z M68.566,68.419H3.722v46.423v12.711v135.345
	c0,35.827,29.028,64.849,64.844,64.849v-43.879c-20.171-22.877-32.419-52.903-32.419-85.801c0-32.875,12.248-62.917,32.419-85.762
	V68.419z"/>
<path fill="#EC8023" d="M165.778,68.419c-38.699,0-73.461,16.996-97.216,43.886v2.537v12.711v156.314
	c23.755,26.907,58.517,43.879,97.216,43.879c42.801,0,80.663-20.763,104.222-52.72c-9.707-13.182-17-28.238-21.198-44.541h-27.177
	c-11.223,19.295-31.865,32.412-55.848,32.412c-35.76,0-64.792-29.028-64.792-64.831c0-35.819,29.033-64.849,64.792-64.849
	c23.982,0,44.624,13.135,55.848,32.42h27.193c4.197-16.302,11.486-31.342,21.201-44.508
	C246.453,89.164,208.587,68.419,165.778,68.419"/>
<path fill="#8B181B" d="M68.566,112.305c-20.171,22.845-32.419,52.886-32.419,85.762c0,32.898,12.248,62.932,32.419,85.801V127.545
	v-12.703V112.305z"/>
<path fill="#E75325" d="M374.413,68.419c-42.813,0-80.779,20.746-104.39,52.712c9.699,13.166,16.972,28.215,21.181,44.508h-42.39
	c-2.665,10.366-4.094,21.225-4.094,32.428c0,11.195,1.428,22.055,4.085,32.419h42.398c-4.21,16.294-11.491,31.359-21.198,44.541
	c23.611,31.981,61.585,52.72,104.406,52.72c38.695,0,73.457-16.972,97.216-43.879V177.783v-44.564c0-1.907,0.411-3.766,0.61-5.665
	h-0.61v-15.248C447.871,85.415,413.109,68.419,374.413,68.419 M374.413,262.898c-35.819,0-64.84-29.028-64.84-64.831
	c0-35.819,29.021-64.849,64.84-64.849c35.763,0,64.792,29.029,64.792,64.849C439.206,233.87,410.176,262.898,374.413,262.898"/>
<path fill="#C02026" d="M270.02,121.13c-9.715,13.166-17.003,28.215-21.201,44.508h42.382
	C286.999,149.345,279.723,134.296,270.02,121.13 M291.201,230.494h-42.398C253,246.789,260.293,261.845,270,275.027
	C279.718,261.845,286.999,246.78,291.201,230.494"/>
<path fill="#F6A81C" d="M601.317,68.419c-23.627,0-45.757,6.376-64.848,17.45v-17.45h-64.84v43.886
	c20.172,22.845,32.416,52.886,32.416,85.762c0,32.898-12.244,62.924-32.416,85.801v43.879c35.811,0,64.84-29.021,64.84-64.792
	v-64.888c0-35.819,29.029-64.849,64.848-64.849c35.819,0,64.836,29.029,64.836,64.849v129.68c16.972,0,32.415-6.52,43.974-17.172
	c-7.205-8.482-11.542-19.461-11.542-31.463c0-21.169,13.532-39.178,32.42-45.865v-35.18
	C731.005,126.468,672.952,68.419,601.317,68.419"/>
<path fill="#D33627" d="M471.629,112.305v15.24h0.61c-0.199,1.907-0.61,3.774-0.61,5.673v44.573v106.077
	c20.168-22.868,32.42-52.903,32.42-85.801C504.049,165.191,491.797,135.15,471.629,112.305"/>
<path fill="#379043" d="M747.219,230.494c-5.685,0-11.151,0.974-16.213,2.753v29.651c0,18.863-8.056,35.827-20.878,47.677
	c8.905,10.509,22.222,17.172,37.091,17.172c26.862,0,48.582-21.76,48.582-48.634C795.801,252.246,774.081,230.494,747.219,230.494"
	/>
<path fill="#205C2E" d="M731.005,233.247c-18.895,6.687-32.42,24.696-32.42,45.882c0,11.977,4.34,22.964,11.542,31.446
	c12.822-11.849,20.878-28.814,20.878-47.669V233.247z"/>
</svg>
